PathFileType	4	(X/Y/Z)	/Users/mathieubourgeois/Desktop/Analyse/Traitement/Sujet_08/Transformed_Static_Sujet_08_Tpose.trc
DataRate	CameraRate	NumFrames	NumMarkers	Units	OrigDataRate	OrigDataStartFrame	OrigNumFrames
120.000000	120.000000	4	35	mm	120.000000	243	324
Frame#	Time	RFHD			RANE			STRN			LANI			LKNE			T10			RHUM			RWRB			C7			LFWT			LTOE			LWRA			LBWT			RBWT			RFWT			LKNI			RKNI			RKNE			LANE			RANI			LHEE			RTOE			LHUM			LRAD			RRAD			RWRA			LWRB			LFHD			LBHD			RBHD			RSHO			LSHO			CLAV			LCAR			RCAR			
		X1	Y1	Z1	X2	Y2	Z2	X3	Y3	Z3	X4	Y4	Z4	X5	Y5	Z5	X6	Y6	Z6	X7	Y7	Z7	X8	Y8	Z8	X9	Y9	Z9	X10	Y10	Z10	X11	Y11	Z11	X12	Y12	Z12	X13	Y13	Z13	X14	Y14	Z14	X15	Y15	Z15	X16	Y16	Z16	X17	Y17	Z17	X18	Y18	Z18	X19	Y19	Z19	X20	Y20	Z20	X21	Y21	Z21	X22	Y22	Z22	X23	Y23	Z23	X24	Y24	Z24	X25	Y25	Z25	X26	Y26	Z26	X27	Y27	Z27	X28	Y28	Z28	X29	Y29	Z29	X30	Y30	Z30	X31	Y31	Z31	X32	Y32	Z32	X33	Y33	Z33	X34	Y34	Z34	X35	Y35	Z35	

244	2.025	-768.9910278320312	1628.0439453125	401.2230529785154	-843.7514038085938	82.52105712890626	205.0167999267577	-696.8111572265625	1253.42431640625	399.3585815429686	-591.3563232421875	91.88213348388673	232.785659790039	-527.353515625	498.6489562988281	301.410675048828	-680.911376953125	1212.467407226562	171.4180297851561	-1096.41552734375	1380.86328125	253.4464874267576	-1344.988891601562	1467.550903320312	245.7295227050779	-695.770263671875	1468.6923828125	211.3544311523436	-558.3065795898438	969.35302734375	367.5450134277343	-527.795654296875	34.55384063720705	399.6700134277343	-28.10438346862795	1409.422241210938	200.7423858642577	-617.9390258789062	1004.768371582031	215.3480682373045	-751.2086791992188	1005.040466308594	212.3773498535155	-796.5221557617188	971.6248779296875	371.071075439453	-629.3576049804688	438.7540893554688	259.1648559570312	-746.6806030273438	433.0848999023438	262.794952392578	-850.3865966796875	506.1297912597656	268.1576538085936	-513.8330688476562	80.6182327270508	191.4330291748046	-764.643798828125	101.150505065918	229.8273925781249	-561.2197265625	52.87033462524415	154.9430541992187	-813.673828125	37.88948822021487	394.2896118164061	-288.2090454101563	1383.380004882812	256.0906372070311	-280.74462890625	1426.6484375	191.1820983886718	-1103.934326171875	1417.148803710938	198.8703918457029	-1352.30712890625	1413.114868164062	205.4107971191404	-36.53823852539065	1480.521850585938	225.2123718261718	-640.2105102539062	1641.945922851562	400.6795654296873	-628.5927124023438	1637.564453125	245.5422973632811	-766.3605346679688	1635.861328125	232.7216949462889	-800.452392578125	1472.330200195312	235.9985961914061	-581.3489379882812	1474.027587890625	230.7248229980467	-696.80859375	1416.472900390625	338.821594238281	62.46459579467771	1459.884155273438	190.5026092529296	-1453.39013671875	1442.130859375	209.1701660156247	
245	2.033333333333333	-768.7487182617188	1628.376953125	400.7823181152341	-843.7494506835938	82.52159881591798	205.0142059326171	-696.7613525390625	1253.396606445312	399.3094177246092	-591.3283081054688	91.88216400146486	232.7644500732421	-527.2300415039062	498.6742858886719	301.3987731933593	-680.80712890625	1212.484375	171.382598876953	-1096.4033203125	1380.701049804688	253.3956604003904	-1345.003662109375	1467.3232421875	245.7186279296872	-695.8060302734375	1468.661499023438	211.308395385742	-558.1715087890625	969.3865356445312	367.5056762695311	-527.7898559570312	34.54795455932619	399.6647949218749	-28.14794158935549	1409.4365234375	200.4644317626952	-617.7075805664062	1004.802673339844	215.2655487060545	-750.9909057617188	1005.016906738281	212.213424682617	-796.4091186523438	971.6215209960938	370.9087524414061	-629.2424926757812	438.7721557617188	259.1059265136718	-746.5894165039062	433.0746154785156	262.7607421874999	-850.2925415039062	506.1332702636719	268.0881042480467	-513.79052734375	80.61557769775392	191.4374542236328	-764.6368408203125	101.1277694702149	229.815948486328	-561.1825561523438	52.87969207763673	154.928726196289	-813.666259765625	37.89515304565432	394.2837829589843	-288.2018127441407	1383.416625976562	255.9250488281249	-280.7640686035156	1426.689819335938	191.0348205566405	-1103.924560546875	1416.995361328125	198.8376159667966	-1352.302124023438	1412.86474609375	205.4245758056638	-36.53854751586917	1480.550415039062	224.9501647949218	-640.0062866210938	1642.209716796875	400.1509399414061	-628.5557250976562	1637.391479492188	245.0293731689451	-766.3588256835938	1635.735595703125	232.3130493164061	-800.4642944335938	1472.294189453125	235.948287963867	-581.3712768554688	1474.074340820312	230.6918487548826	-696.8119506835938	1416.45947265625	338.7875061035154	62.39553451538084	1459.888305664062	190.1569061279296	-1453.140747070312	1442.242553710938	208.4660949707029	
246	2.041666666666667	-768.5487060546875	1628.75390625	400.4223327636716	-843.7474365234375	82.51843261718751	204.9985961914061	-696.7239990234375	1253.361450195312	399.268585205078	-591.3026733398438	91.9011917114258	232.757598876953	-527.1132202148438	498.6919555664062	301.3929748535155	-680.7189331054688	1212.514892578125	171.2882995605467	-1096.388305664062	1380.506103515625	253.3795318603513	-1345.019653320312	1467.101440429688	245.734680175781	-695.8311157226562	1468.634765625	211.237091064453	-558.044189453125	969.4130859375	367.4367065429686	-527.790771484375	34.55397033691408	399.6694335937499	-28.19806480407717	1409.443359375	200.2314910888671	-617.5059204101562	1004.818664550781	215.1879425048827	-750.807373046875	1005.013549804688	212.0582733154295	-796.3023071289062	971.6041259765625	370.7417907714842	-629.1328735351562	438.802001953125	259.0721130371093	-746.50341796875	433.0526428222656	262.7015686035155	-850.1931762695312	506.1143188476562	268.0228271484373	-513.7696533203125	80.6086883544922	191.4380187988281	-764.63037109375	101.101791381836	229.8078613281249	-561.1519165039062	52.88055801391602	154.921401977539	-813.668701171875	37.90552139282229	394.2737731933593	-288.2240295410157	1383.446411132812	255.7783813476561	-280.8089904785156	1426.746704101562	190.9005584716796	-1103.921752929688	1416.85498046875	198.8334655761716	-1352.297119140625	1412.66015625	205.4039611816404	-36.53310394287112	1480.564697265625	224.6991729736327	-639.7883911132812	1642.4853515625	399.5856628417967	-628.53466796875	1637.228637695312	244.4843749999998	-766.3314208984375	1635.584838867188	231.8732910156248	-800.4940795898438	1472.254272460938	235.953643798828	-581.3939819335938	1474.119018554688	230.6713256835936	-696.8073120117188	1416.457275390625	338.7550354003904	62.33368682861326	1459.865356445312	189.7977294921874	-1453.4287109375	1441.630126953125	209.2198028564451	
247	2.05	-768.3804931640625	1629.126220703125	400.0746459960935	-843.7437744140625	82.51522064208986	204.9944305419921	-696.6873779296875	1253.339111328125	399.2272338867186	-591.2716064453125	91.9144973754883	232.7398986816405	-527.0123901367188	498.6981811523438	301.3883666992186	-680.6292114257812	1212.556884765625	171.2571411132811	-1096.386962890625	1380.34033203125	253.3496093749998	-1345.04833984375	1466.867065429688	245.7399444580076	-695.8862915039062	1468.612670898438	211.1885986328123	-557.9072875976562	969.4398803710938	367.3556518554686	-527.8016967773438	34.55656051635744	399.6763000488281	-28.24266815185549	1409.423706054688	199.9864654541015	-617.3187255859375	1004.854919433594	215.0995330810545	-750.6331176757812	1004.985107421875	211.8886871337889	-796.1582641601562	971.5902709960938	370.5343627929686	-629.0214233398438	438.8171997070312	259.0224304199218	-746.4083251953125	433.0381469726562	262.660186767578	-850.0831298828125	506.0929260253906	267.9649658203123	-513.7276611328125	80.59824371337892	191.4398345947265	-764.6243896484375	101.0923004150391	229.780532836914	-561.1340942382812	52.87676239013673	154.9219665527343	-813.6630249023438	37.89901351928713	394.2583007812499	-288.2351074218751	1383.472534179688	255.634552001953	-280.8436279296875	1426.790893554688	190.8105010986327	-1103.930541992188	1416.720336914062	198.8371276855466	-1352.309448242188	1412.46484375	205.4127349853513	-36.53941345214847	1480.546630859375	224.4545135498046	-639.60546875	1642.751708984375	399.0942382812498	-628.51806640625	1637.08544921875	243.8644714355467	-766.3109741210938	1635.41943359375	231.4862518310545	-800.5205688476562	1472.212768554688	235.9594879150389	-581.4050903320312	1474.167114257812	230.6651611328123	-696.8169555664062	1416.441040039062	338.7202453613279	62.31156921386717	1459.832763671875	189.4420623779296	-1453.445922851562	1441.364135742188	209.2428283691404	
